<mxfile host="app.diagrams.net" agent="Mozilla/5.0 (Windows NT 10.0; Win64; x64) AppleWebKit/537.36 (KHTML, like Gecko) Chrome/131.0.0.0 Safari/537.36" version="26.0.7">
  <diagram name="Page-1" id="jwaq4UK_6UTf6UkzIGzg">
    <mxGraphModel dx="1434" dy="772" grid="1" gridSize="10" guides="1" tooltips="1" connect="1" arrows="1" fold="1" page="1" pageScale="1" pageWidth="827" pageHeight="1169" math="0" shadow="0">
      <root>
        <mxCell id="0" />
        <mxCell id="1" parent="0" />
        <mxCell id="-N-0wt58NiBehAgQ0jAr-31" value="" style="swimlane;startSize=0;" vertex="1" parent="1">
          <mxGeometry x="40" y="40" width="440" height="480" as="geometry" />
        </mxCell>
        <mxCell id="-N-0wt58NiBehAgQ0jAr-32" value="" style="swimlane;startSize=0;" vertex="1" parent="-N-0wt58NiBehAgQ0jAr-31">
          <mxGeometry width="100" height="480" as="geometry" />
        </mxCell>
        <mxCell id="-N-0wt58NiBehAgQ0jAr-37" value="" style="endArrow=none;html=1;rounded=0;exitX=1;exitY=0.25;exitDx=0;exitDy=0;entryX=1;entryY=0.25;entryDx=0;entryDy=0;" edge="1" parent="-N-0wt58NiBehAgQ0jAr-31" source="-N-0wt58NiBehAgQ0jAr-32" target="-N-0wt58NiBehAgQ0jAr-31">
          <mxGeometry width="50" height="50" relative="1" as="geometry">
            <mxPoint x="350" y="280" as="sourcePoint" />
            <mxPoint x="400" y="230" as="targetPoint" />
          </mxGeometry>
        </mxCell>
      </root>
    </mxGraphModel>
  </diagram>
</mxfile>
